<svg xmlns="http://www.w3.org/2000/svg" width="40" height="40" viewBox="0 0 40 40">
  <path id="github" d="M15,29.206a1.25,1.25,0,1,1,1.25,1.27A1.259,1.259,0,0,1,15,29.206ZM27.291,39.219a3.712,3.712,0,0,1-1.041.166,3.779,3.779,0,0,1-3.75-3.809V30.957a3.653,3.653,0,0,1,2.406-3.447C27.591,26.594,30,24.292,30,21.587v-2.54a5.27,5.27,0,0,0-1.25-3.283V12.9c0-1.4-1.119-1.882-2.5-1.071l-1.915,1.125A7.245,7.245,0,0,0,22.5,12.7h-5a7.247,7.247,0,0,0-1.835.252L13.75,11.826c-1.38-.811-2.5-.331-2.5,1.071v2.868A5.27,5.27,0,0,0,10,19.047v2.54a6.01,6.01,0,0,0,2.7,4.668l0,0a1.272,1.272,0,0,1-.707,2.314,1.232,1.232,0,0,1-.9-.389,8.5,8.5,0,0,1-3.6-6.595v-2.54A7.558,7.558,0,0,1,8.75,14.97V11.19c0-2.8,2.238-3.765,5-2.143L15.9,10.308a9.444,9.444,0,0,1,1.6-.149h5a9.446,9.446,0,0,1,1.6.149L26.25,9.047c2.762-1.622,5-.662,5,2.143v3.78a7.561,7.561,0,0,1,1.25,4.077v2.54c0,3.778-3.066,7-6.682,8.282,0,0-.009.014-.015.015a1.27,1.27,0,0,0-.8,1.187v4.5a1.259,1.259,0,0,0,1.25,1.27,1.177,1.177,0,0,0,.3-.055A17.76,17.76,0,0,0,37.5,20.317,17.64,17.64,0,0,0,20,2.54,17.64,17.64,0,0,0,2.5,20.317,17.747,17.747,0,0,0,14.15,37.055a.925.925,0,0,0,.1.019.759.759,0,0,0,0-1.518c-.009,0-.009-.007-.015-.011-4.153-.113-4.158-5.068-5.488-5.068a1.27,1.27,0,0,1,0-2.54h.624c2.5,0,2.144,5.079,5.626,5.079a2.52,2.52,0,0,1,2.5,2.54v2.222A2.205,2.205,0,0,1,15.312,40a1.956,1.956,0,0,1-.382-.052A20.247,20.247,0,0,1,0,20.317,20.161,20.161,0,0,1,20,0,20.161,20.161,0,0,1,40,20.317a20.3,20.3,0,0,1-12.709,18.9Z" fill="#c4b480" fill-rule="evenodd" opacity="0.7"/>
</svg>
